<svg viewBox="0 0 150 150" xmlns="http://www.w3.org/2000/svg"><g stroke="#000" fill="#000" fill-rule="evenodd"><path d="M72.0771004,35.5039062 C73.5537472,35.5039062 74.810636,36.0224828 75.8478046,37.0596513 C76.8849732,38.0968199 77.4035497,39.3537088 77.4035497,40.8303556 C77.4035497,42.3070024 76.8849732,43.5726806 75.8478046,44.6274284 C74.810636,45.6821761 73.5537472,46.209542 72.0771004,46.209542 C70.6004536,46.209542 69.3347753,45.6821761 68.2800276,44.6274284 C67.2252799,43.5726806 66.6979139,42.3070024 66.6979139,40.8303556 C66.6979139,39.3537088 67.2164904,38.0968199 68.253659,37.0596513 C69.2908276,36.0224828 70.5652953,35.5039062 72.0771004,35.5039062 L72.0771004,35.5039062 Z M76.4542815,60.7649877 L76.4542815,99.5795095 C76.4542815,102.60312 76.6740173,104.6159 77.1134955,105.61791 C77.5529737,106.61992 78.2033917,107.367022 79.064769,107.859238 C79.9261463,108.351453 81.4994547,108.597557 83.7847415,108.597557 L83.7847415,110.496094 L60.3167222,110.496094 L60.3167222,108.597557 C62.6723254,108.597557 64.2544232,108.369032 65.0630631,107.911975 C65.8717031,107.454917 66.5133316,106.699026 66.9879681,105.644279 C67.4626046,104.589531 67.6999192,102.567961 67.6999192,99.5795095 L67.6999192,80.9633054 C67.6999192,75.7247251 67.5417095,72.3320042 67.2252851,70.7850409 C66.9791773,69.6599766 66.5924423,68.8777172 66.0650685,68.4382389 C65.5376946,67.9987607 64.8169611,67.7790249 63.9028465,67.7790249 C62.9184153,67.7790249 61.7230524,68.0427079 60.3167222,68.5700818 L59.5784024,66.6715454 L74.1338481,60.7649877 L76.4542815,60.7649877 Z" /><circle fill="none" stroke-width="4" cx="75" cy="75" r="73"></circle></g></svg>
