<svg viewBox="0 0 150 150" xmlns="http://www.w3.org/2000/svg"><g stroke="#000" fill="#000" fill-rule="evenodd"><path d="M78.3564103,110.975325 C78.3564103,113.132468 76.5794872,114.897403 74.4076923,114.897403 C72.2358974,114.897403 70.4589744,113.132468 70.4589744,110.975325 C70.4589744,108.818182 72.2358974,107.053247 74.4076923,107.053247 C76.5794872,107.053247 78.3564103,108.818182 78.3564103,110.975325 L78.3564103,110.975325 Z M94.7435897,57.6350649 C94.7435897,64.4987013 90.7948718,70.774026 83.4897436,75.0883117 C78.1589744,78.225974 78.3564103,81.9519481 78.3564103,82.1480519 L78.3564103,82.5402597 L78.3564103,91.561039 C78.3564103,93.5220779 76.7769231,95.0909091 74.8025641,95.0909091 C72.8282051,95.0909091 71.0512821,93.5220779 71.0512821,91.561039 L71.0512821,82.7363636 C70.8538462,79.5987013 72.4333333,73.5194805 79.5410256,69.2051948 C83.0948718,67.0480519 87.2410256,63.3220779 87.2410256,57.8311688 C87.2410256,51.1636364 81.7128205,45.6727273 75,45.6727273 C68.2871795,45.6727273 62.7589744,51.1636364 62.7589744,57.8311688 C62.7589744,59.7922078 61.1794872,61.361039 59.2051282,61.361039 C57.2307692,61.361039 55.6512821,59.7922078 55.6512821,57.8311688 C55.6512821,47.0454545 64.3384615,38.4168831 75.1974359,38.4168831 C86.0564103,38.4168831 94.7435897,46.8493506 94.7435897,57.6350649 L94.7435897,57.6350649 Z" /><circle fill="none" stroke-width="4" cx="75" cy="75" r="73"></circle></g></svg>
