<svg viewBox="0 0 150 150" xmlns="http://www.w3.org/2000/svg"><g stroke="#000" fill="#000" fill-rule="evenodd"><path d="M59.9591111,52.3182222 L84.0995556,52.3182222 L84.0995556,56.3413333 L59.9591111,56.3413333 L59.9591111,52.3182222 Z M48.0506667,59.5457778 L50.9368889,56.6595556 L53.8222222,59.5448889 L56.0977778,57.2693333 L53.2124444,54.384 L56.0977778,51.4977778 L53.8222222,49.2222222 L50.9368889,52.1075556 L48.0515556,49.2222222 L45.776,51.4977778 L48.6613333,54.384 L45.7751111,57.2702222 L48.0506667,59.5457778 Z M54.6266667,67.024 L49.6195556,72.0311111 L47.2462222,69.6577778 L44.9697778,71.9333333 L49.6195556,76.5831111 L56.9022222,69.2995556 L54.6266667,67.024 Z M47.2462222,87.3768889 L44.9706667,89.6524444 L49.6195556,94.3013333 L56.9022222,87.0186667 L54.6266667,84.7431111 L49.6195556,89.7502222 L47.2462222,87.3768889 Z M41.0497778,105.830222 L41.0497778,41.4551111 L93.3537778,41.4551111 L93.3537778,64.4195556 C94.5386667,63.5182222 95.9733333,63.024 97.4862222,63.024 C98.1395556,63.024 98.7777778,63.1191111 99.3893333,63.2951111 L99.3893333,39.4435556 C99.3893333,37.2302222 97.5768889,35.4204444 95.3662222,35.4204444 L39.0373333,35.4204444 C36.8231111,35.4204444 35.0142222,37.2302222 35.0142222,39.4435556 L35.0142222,107.840889 C35.0142222,110.051556 36.8231111,111.864 39.0373333,111.864 L64.6702222,111.864 C64.1982222,109.775111 64.7111111,107.515556 66.2044444,105.829333 L41.0497778,105.829333 L41.0497778,105.830222 Z M59.9591111,91.7475556 L64.0702222,91.7475556 C65.3262222,90.2471111 67.2,89.2897778 69.2933333,89.2897778 L70.3208889,89.2897778 C70.3475556,89.2177778 70.3751111,89.144 70.4017778,89.072 L68.968,87.7235556 L59.9591111,87.7235556 L59.9591111,91.7475556 Z M78.9626667,72.4613333 C78.6453333,71.6808889 78.496,70.8515556 78.4791111,70.0213333 L59.9591111,70.0213333 L59.9591111,74.0444444 L78.0071111,74.0444444 C78.2942222,73.4995556 78.6071111,72.9671111 78.9626667,72.4613333 Z M72.9057778,79.9448889 C72.3173333,79.3564444 71.3644444,79.3715556 70.7751111,79.96 C70.1857778,80.5484444 70.184,81.5102222 70.7724444,82.0986667 L74.3795556,85.4906667 C74.6622222,85.7733333 75.0462222,85.7075556 75.4462222,85.7075556 L78.3804444,85.7075556 C76.2906667,88.328 74.9182222,91.4755556 74.4106667,94.6222222 L69.2933333,94.6222222 C68.4604444,94.6222222 67.7866667,95.3626667 67.7866667,96.1955556 C67.7866667,97.0284444 68.4604444,97.7697778 69.2933333,97.7697778 L74.1884444,97.7697778 C74.2142222,100.391111 74.8782222,103.013333 76.0355556,105.111111 L74.9431111,105.111111 C74.5431111,105.111111 74.1591111,105.340444 73.8764444,105.624 L70.2693333,109.276444 C69.6817778,109.865778 69.6826667,110.836444 70.2711111,111.424 C70.5662222,111.716444 70.9502222,111.872 71.3351111,111.872 C71.7208889,111.872 72.1075556,111.726222 72.4008889,111.430222 L75.5671111,108.258667 L77.9991111,108.258667 C80.9617778,111.929778 85.6151111,114.312889 90.3351111,114.579556 L90.3351111,83.0862222 L76.0684444,83.0862222 L72.9057778,79.9448889 Z M113.48,94.6231111 L108.256,94.6231111 C107.606222,91.4764444 105.930667,88.3288889 103.968,85.7084444 L107.327111,85.7084444 C107.727111,85.7084444 108.111111,85.7786667 108.393778,85.496 L112.001778,81.9937778 C112.588444,81.4044444 112.586667,80.5084444 111.998222,79.9217778 C111.408,79.3333333 110.456,79.328 109.867556,79.9173333 L106.701333,83.0862222 L92.4346667,83.0862222 L92.4346667,114.569778 C97.1555556,114.262222 101.724444,111.405333 104.687111,108.258667 L107.203556,108.258667 L110.369778,111.434667 C110.664,111.731556 111.049778,111.88 111.435556,111.88 C111.821333,111.88 112.205333,111.732444 112.499556,111.440889 C113.088889,110.854222 113.089778,109.900444 112.502222,109.311111 L108.895111,105.624 C108.612444,105.340444 108.228444,105.111111 107.828444,105.111111 L106.674667,105.111111 C107.846222,103.014222 108.519111,100.391111 108.544889,97.7697778 L113.478222,97.7697778 C114.310222,97.7697778 114.984,97.0284444 114.984,96.1955556 C114.984,95.3626667 114.312,94.6231111 113.48,94.6231111 Z M81.6426667,80.9875556 L101.129778,80.9875556 C101.129778,77.3164444 99.3084444,74.5555556 96.5742222,72.8302222 L98.5413333,70.9031111 C99.1297778,70.3146667 99.1297778,69.3813333 98.5413333,68.7928889 C97.9528889,68.2053333 97,68.2151111 96.4115556,68.8026667 L93.5671111,71.6533333 C92.8648889,71.4924444 92.1377778,71.4017778 91.3866667,71.4017778 C90.6355556,71.4017778 89.9075556,71.496 89.2053333,71.6568889 L86.3608889,68.8133333 C85.7724444,68.2248889 84.8195556,68.2248889 84.2311111,68.8133333 C83.6426667,69.4008889 83.6426667,70.3555556 84.2311111,70.944 L86.1973333,72.8302222 C83.464,74.5564444 81.6426667,77.3164444 81.6426667,80.9875556 Z" /><circle fill="none" stroke-width="4" cx="75" cy="75" r="73"></circle></g></svg>
