<svg viewBox="0 0 150 150" xmlns="http://www.w3.org/2000/svg"><g stroke="#000" fill="#000" fill-rule="evenodd"><path d="M97,75.8183653 L97,77 C97,78.1 97.9,79 99,79 C100.1,79 101,78.1 101,77 L101,75.8183653 C102.546608,75.5339045 103.98032,74.9255996 105.228142,74.0664447 L106.068,74.9 C106.46,75.288 106.972,75.484 107.484,75.484 C107.996,75.484 108.508,75.288 108.896,74.9 C109.672,74.128 109.672,72.852 108.896,72.072 L108.058041,71.2403297 C108.921633,69.9896593 109.532978,68.5516461 109.818365,67 L111,67 C112.1,67 113,66.1 113,65 C113,63.9 112.1,63 111,63 L109.818365,63 C109.53337,61.4504865 108.923313,60.0142938 108.0616,58.7648282 L108.896,57.932 C109.676,57.164 109.676,55.884 108.896,55.104 C108.12,54.332 106.844,54.332 106.068,55.104 L105.233311,55.9371168 C103.984281,55.0760814 102.548744,54.4664884 101,54.1816347 L101,53 C101,51.9 100.1,51 99,51 C97.9,51 97,51.9 97,53 L97,54.1816347 C95.4492984,54.4668483 94.0120914,55.0776226 92.7619544,55.9403822 L91.924,55.104 C91.148,54.332 89.876,54.332 89.096,55.104 C88.32,55.884 88.32,57.16 89.096,57.932 L89.9351366,58.7695622 C89.0751468,60.0179209 88.4662699,61.4524431 88.1816347,63 L87,63 C85.9,63 85,63.9 85,65 C85,66.1 85.9,67 87,67 L88.1816347,67 C88.4665217,68.5489258 89.0762242,69.9846167 89.9374192,71.23375 L89.096,72.072 C88.32,72.852 88.32,74.128 89.096,74.9 C89.488,75.288 90,75.484 90.512,75.484 L90.512,75.484 C91.024,75.484 91.536,75.288 91.924,74.9 L92.7652662,74.0619024 C94.0146294,74.9234557 95.4506676,75.5334035 97,75.8183653 Z M99,58 C95.14,58 92,61.14 92,65 C92,68.86 95.14,72 99,72 C102.86,72 106,68.86 106,65 C106,61.14 102.86,58 99,58 Z M45,83 C43.896,83 43,82.1 43,81 L43,73 C43,71.9 43.896,71 45,71 C46.104,71 47,71.9 47,73 L47,81 C47,82.1 46.104,83 45,83 Z M53,83 C51.896,83 51,82.1 51,81 L51,53 C51,51.9 51.896,51 53,51 C54.104,51 55,51.9 55,53 L55,81 C55,82.1 54.104,83 53,83 Z M61,83 C59.896,83 59,82.1 59,81 L59,65 C59,63.9 59.896,63 61,63 C62.104,63 63,63.9 63,65 L63,81 C63,82.1 62.104,83 61,83 Z M69,83 C67.896,83 67,82.1 67,81 L67,61 C67,59.9 67.896,59 69,59 C70.104,59 71,59.9 71,61 L71,81 C71,82.1 70.104,83 69,83 Z M77,83 C75.896,83 75,82.1 75,81 L75,49 C75,47.9 75.896,47 77,47 C78.1,47 79,47.9 79,49 L79,81 C79,82.1 78.1,83 77,83 Z" /><path d="M121,93 L29,93 C27.896,93 27,92.1 27,91 L27,39 C27,37.9 27.896,37 29,37 L121,37 C122.1,37 123,37.9 123,39 L123,91 C123,92.1 122.1,93 121,93 L121,93 Z M31,89 L119,89 L119,41 L31,41 L31,89 Z M51,113 C49.896,113 49,112.1 49,111 C49,109.9 49.896,109 51,109 L55.416,109 C59.596,109 63,105.592 63,101.416 L63,93 C63,93 67,93 67,93 L67,101.416 C67,104.324 65.932,106.976 64.168,109 L86.672,109 C84.476,106.984 83.004,104.352 83.004,101.416 L83.004,93 C83.0040016,93 87.0040016,93 87.004,93 L87.004,101.416 C87.004,105.5 92.272,109 96.588,109 L99,109 C100.1,109 101,109.9 101,111 C101,112.1 100.1,113 99,113 L51,113 Z" /><circle fill="none" stroke-width="4" cx="75" cy="75" r="73"></circle></g></svg>
