<svg viewBox="0 0 150 150" version="1.1" xmlns="http://www.w3.org/2000/svg"><g stroke="#000" fill="#000" fill-rule="evenodd"><circle fill="none" stroke-width="4" cx="75" cy="75" r="73"></circle><path d="M42.3403704,87.4049118 L42.3403704,37.0918824 C42.3403704,35.8606765 41.3464198,34.8658235 40.1297284,34.8658235 C38.913037,34.8658235 37.9190864,35.8618824 37.9190864,37.0918824 L37.9190864,87.4049118 L42.3403704,87.4049118 Z M37.9178889,105.074706 L37.9178889,112.814059 C37.9178889,114.047676 38.9118395,115.040118 40.1285309,115.040118 C41.3452222,115.040118 42.3391728,114.048882 42.3391728,112.814059 L42.3391728,105.074706 L37.9178889,105.074706 Z M73.289358,68.2567059 L73.289358,112.814059 C73.289358,114.047676 74.2833086,115.040118 75.5,115.040118 C76.7166914,115.040118 77.710642,114.048882 77.710642,112.814059 L77.710642,68.2567059 L73.289358,68.2567059 Z M77.710642,50.5917353 L77.710642,37.0918824 C77.710642,35.8606765 76.7178889,34.8658235 75.5,34.8658235 C74.2821111,34.8658235 73.289358,35.8618824 73.289358,37.0918824 L73.289358,50.5917353 L77.710642,50.5917353 Z M113.082111,72.2614412 L113.082111,37.0918824 C113.082111,35.8606765 112.089358,34.8658235 110.871469,34.8658235 C109.652383,34.8658235 108.65963,35.8618824 108.65963,37.0918824 L108.65963,72.2614412 L113.082111,72.2614412 Z M108.65963,89.9276176 L108.65963,112.814059 C108.65963,114.047676 109.652383,115.040118 110.871469,115.040118 C112.089358,115.040118 113.082111,114.048882 113.082111,112.814059 L113.082111,89.9276176 L108.65963,89.9276176 Z M52.6594938,96.2392059 C52.6594938,99.7181765 49.8620617,102.552 46.3904198,102.552 L33.8678395,102.552 C30.3961975,102.552 27.5987654,99.7169706 27.5987654,96.2392059 C27.5987654,92.7517941 30.3961975,89.9276176 33.8678395,89.9276176 L46.3892222,89.9276176 C49.8608642,89.9276176 52.6594938,92.753 52.6594938,96.2392059 Z M88.0297654,59.4224118 C88.0297654,62.9098235 85.2239506,65.7352059 81.7618889,65.7352059 L69.2309259,65.7352059 C65.7676667,65.7352059 62.9618519,62.9086176 62.9618519,59.4224118 C62.9618519,55.9398235 65.7688642,53.1132353 69.2309259,53.1132353 L81.7618889,53.1132353 C85.2239506,53.1132353 88.0297654,55.9398235 88.0297654,59.4224118 Z M123.401235,81.0921176 C123.401235,84.5795294 120.594222,87.4049118 117.13216,87.4049118 L104.602395,87.4049118 C101.139136,87.4049118 98.333321,84.5783235 98.333321,81.0921176 C98.333321,77.6095294 101.140333,74.7841471 104.602395,74.7841471 L117.13216,74.7841471 C120.594222,74.7829412 123.401235,77.6095294 123.401235,81.0921176 Z" /></g></svg>
